<svg width="237" height="49" viewBox="0 0 237 49" fill="none" xmlns="http://www.w3.org/2000/svg">
<path d="M14.1211 0H34.0853V49H14.1211V0Z" fill="#FF6467"/>
<path d="M48.6933 15.68V33.32H0V15.68H48.6933Z" fill="#FF6467"/>
<path d="M75.4747 12.3186V16.1945H65.5558V22.3342H73.1569V26.1415H65.5558V36.26H60.7839V12.3186H75.4747Z" fill="#00786F"/>
<path d="M93.447 31.6981H83.9712L82.4033 36.26H77.3928L85.9482 12.2843H91.5041L100.06 36.26H95.0149L93.447 31.6981ZM92.1517 27.8565L88.7091 17.8409L85.2665 27.8565H92.1517Z" fill="#00786F"/>
<path d="M115.528 36.26L110.279 26.9304H108.029V36.26H103.257V12.3186H112.188C114.028 12.3186 115.596 12.6502 116.892 13.3133C118.187 13.9536 119.153 14.8339 119.789 15.9544C120.448 17.052 120.777 18.2868 120.777 19.6588C120.777 21.2366 120.323 22.6658 119.414 23.9463C118.505 25.204 117.153 26.0729 115.358 26.5531L121.05 36.26H115.528ZM108.029 23.3289H112.017C113.313 23.3289 114.278 23.0202 114.915 22.4028C115.551 21.7625 115.869 20.8822 115.869 19.7617C115.869 18.6641 115.551 17.818 114.915 17.2235C114.278 16.6061 113.313 16.2974 112.017 16.2974H108.029V23.3289Z" fill="#00786F"/>
<path d="M151.032 12.3186V36.26H146.26V20.6878L139.886 36.26H136.273L129.865 20.6878V36.26H125.093V12.3186H130.513L138.08 30.1203L145.647 12.3186H151.032Z" fill="#00786F"/>
<path d="M170.339 31.6981H160.863L159.295 36.26H154.284L162.84 12.2843H168.396L176.951 36.26H171.907L170.339 31.6981ZM169.043 27.8565L165.601 17.8409L162.158 27.8565H169.043ZM169.316 7.3451L161.476 10.9466V7.5166L169.316 3.4349V7.3451Z" fill="#00786F"/>
<path d="M178.99 24.255C178.99 21.8997 179.513 19.796 180.558 17.9438C181.626 16.0687 183.069 14.6167 184.887 13.5877C186.728 12.5358 188.784 12.0099 191.056 12.0099C193.715 12.0099 196.044 12.6959 198.044 14.0679C200.044 15.4399 201.441 17.3378 202.236 19.7617H196.749C196.203 18.6184 195.431 17.7609 194.431 17.1892C193.454 16.6175 192.318 16.3317 191.022 16.3317C189.636 16.3317 188.398 16.6633 187.307 17.3264C186.239 17.9667 185.398 18.8813 184.785 20.0704C184.194 21.2595 183.899 22.6543 183.899 24.255C183.899 25.8328 184.194 27.2277 184.785 28.4396C185.398 29.6287 186.239 30.5548 187.307 31.2179C188.398 31.8582 189.636 32.1783 191.022 32.1783C192.318 32.1783 193.454 31.8925 194.431 31.3208C195.431 30.7263 196.203 29.8573 196.749 28.714H202.236C201.441 31.1607 200.044 33.0701 198.044 34.4421C196.067 35.7912 193.738 36.4658 191.056 36.4658C188.784 36.4658 186.728 35.9513 184.887 34.9223C183.069 33.8704 181.626 32.4184 180.558 30.5662C179.513 28.714 178.99 26.6103 178.99 24.255Z" fill="#00786F"/>
<path d="M211.084 12.3186V36.26H206.312V12.3186H211.084Z" fill="#00786F"/>
<path d="M230.387 31.6981H220.912L219.344 36.26H214.333L222.889 12.2843H228.445L237 36.26H231.955L230.387 31.6981ZM229.092 27.8565L225.65 17.8409L222.207 27.8565H229.092Z" fill="#00786F"/>
</svg>
